<svg width="130" height="130" viewBox="0 0 130 130" fill="none" xmlns="http://www.w3.org/2000/svg">
<path fill-rule="evenodd" clip-rule="evenodd" d="M65 32.695C50.5538 32.695 41.5296 39.8721 37.9167 54.2317C43.3333 47.0546 49.6546 44.3625 56.875 46.1554C60.9971 47.1792 63.9438 50.1529 67.1992 53.4408C72.5129 58.7979 78.6608 65 92.0833 65C106.53 65 115.554 57.8229 119.167 43.4633C113.75 50.6404 107.434 53.3325 100.208 51.5396C96.0863 50.5158 93.1396 47.5421 89.8788 44.2542C84.5704 38.8917 78.4279 32.695 65 32.695ZM37.9167 65C23.4704 65 14.4463 72.1771 10.8333 86.5367C16.25 79.3542 22.5713 76.6675 29.7917 78.4604C33.9138 79.4842 36.8604 82.4579 40.1213 85.7458C45.4296 91.1029 51.5775 97.305 65.0054 97.305C79.4517 97.305 88.4758 90.1279 92.0888 75.7683C86.6721 82.9454 80.3508 85.6375 73.1304 83.8446C69.0083 82.8208 66.0617 79.8471 62.8063 76.5592C57.4871 71.2021 51.3392 65 37.9167 65Z" fill="black"/>
</svg>
